<?xml version="1.0" encoding="utf-8" standalone="yes"?>
  <!DOCTYPE svg PUBLIC "-//W3C//DTD SVG 1.1//EN" "http://www.w3.org/Graphics/SVG/1.1/DTD/svg11.dtd">
    <svg xmlns="http://www.w3.org/2000/svg" xmlns:xlink="http://www.w3.org/1999/xlink" width="822" height="481" viewBox="0 0 822 481" style="fill:none;stroke:none;fill-rule:evenodd;clip-rule:evenodd;stroke-linecap:round;stroke-linejoin:round;stroke-miterlimit:1.5;" version="1.1">
    <style class="text-font-style fontImports" data-font-family="Roboto">@import url('https://fonts.googleapis.com/css2?family=Roboto:wght@400;700&amp;display=block');</style>
    <g id="items" style="isolation: isolate">
      <g id="blend" style="mix-blend-mode: normal">
        <g id="g-root-ro_dkgv0osx0ido-fill" data-item-order="-19800" transform="translate(334.6666564941406, 188)">
          <g id="ro_dkgv0osx0ido-fill" stroke="none" fill="#545454">
            <g>
              <path d="M 34 10L 118 10C 118 10 142 10 142 34L 142 136C 142 136 142 160 118 160L 34 160C 34 160 10 160 10 136L 10 34C 10 34 10 10 34 10"/>
            </g>
          </g>
        </g>
        <g id="g-root-ro_hx5zpksx8xdw-fill" data-item-order="-11664" transform="translate(446.6666564941406, 98)">
          <g id="ro_hx5zpksx8xdw-fill" stroke="none" fill="#68403f">
            <g>
              <path d="M 22 10L 214 10C 214 10 226 10 226 22L 226 52C 226 52 226 64 214 64L 22 64C 22 64 10 64 10 52L 10 22C 10 22 10 10 22 10"/>
            </g>
          </g>
        </g>
        <g id="g-root-ro_1qf3vgosx64g6-fill" data-item-order="-10368" transform="translate(446.6666564941406, 374)">
          <g id="ro_1qf3vgosx64g6-fill" stroke="none" fill="#54502f">
            <g>
              <path d="M 22 10L 190 10C 190 10 202 10 202 22L 202 52C 202 52 202 64 190 64L 22 64C 22 64 10 64 10 52L 10 22C 10 22 10 10 22 10"/>
            </g>
          </g>
        </g>
        <g id="g-root-ro_hz1eywsxaakv-fill" data-item-order="-9720" transform="translate(514.6666259765625, 176)">
          <g id="ro_hz1eywsxaakv-fill" stroke="none" fill="#4b533a">
            <g>
              <path d="M 22 10L 178 10C 178 10 190 10 190 22L 190 52C 190 52 190 64 178 64L 22 64C 22 64 10 64 10 52L 10 22C 10 22 10 10 22 10"/>
            </g>
          </g>
        </g>
        <g id="g-root-ro_1hduolksws0ea-fill" data-item-order="-9720" transform="translate(106.66665649414062, 176)">
          <g id="ro_1hduolksws0ea-fill" stroke="none" fill="#60436d">
            <g>
              <path d="M 22 10L 178 10C 178 10 190 10 190 22L 190 52C 190 52 190 64 178 64L 22 64C 22 64 10 64 10 52L 10 22C 10 22 10 10 22 10"/>
            </g>
          </g>
        </g>
        <g id="g-root-ro_djuh3cswteyr-fill" data-item-order="-9072" transform="translate(186.66665649414062, 98)">
          <g id="ro_djuh3cswteyr-fill" stroke="none" fill="#3e4e69">
            <g>
              <path d="M 22 10L 166 10C 166 10 178 10 178 22L 178 52C 178 52 178 64 166 64L 22 64C 22 64 10 64 10 52L 10 22C 10 22 10 10 22 10"/>
            </g>
          </g>
        </g>
        <g id="g-root-ro_hx62vcswqoem-fill" data-item-order="-7776" transform="translate(210.66665649414062, 374)">
          <g id="ro_hx62vcswqoem-fill" stroke="none" fill="#3b5649">
            <g>
              <path d="M 22 10L 142 10C 142 10 154 10 154 22L 154 52C 154 52 154 64 142 64L 22 64C 22 64 10 64 10 52L 10 22C 10 22 10 10 22 10"/>
            </g>
          </g>
        </g>
        <g id="g-root-cu_4o7gugswtgjk-fill" data-item-order="0" transform="translate(422.6666564941406, 125)"/>
        <g id="g-root-tx_conceptu_1utofewsxaadf-fill" data-item-order="0" transform="translate(562.6666259765625, 278)">
          <g id="tx_conceptu_1utofewsxaadf-fill" stroke="none" fill="#f4f4f4">
            <g>
              <text style="font: 20px Roboto, sans-serif; white-space: pre;" font-size="20px" font-family="Roboto, sans-serif">
              <tspan x="12" y="34" dominant-baseline="ideographic">Conceptual</tspan>
            </text>
          </g>
        </g>
      </g>
      <g id="g-root-cu_djuh3cswteys-fill" data-item-order="0" transform="translate(354.6666564941406, 338)"/>
      <g id="g-root-cu_940yywswtfr9-fill" data-item-order="0" transform="translate(354.6666564941406, 125)"/>
      <g id="g-root-cu_940yywswtfr6-fill" data-item-order="0" transform="translate(422.6666564941406, 338)"/>
      <g id="g-root-cu_4o7gugswtfrj-fill" data-item-order="0" transform="translate(286.6666564941406, 203)"/>
      <g id="g-root-cu_1utoikoswth57-fill" data-item-order="0" transform="translate(466.6666564941406, 203)"/>
      <g id="g-root-cu_1lynzewswtfk6-fill" data-item-order="0" transform="translate(538.6666259765625, 230)"/>
      <g id="g-root-tx_academic_dj7wugsxabd4-fill" data-item-order="0" transform="translate(142.66665649414062, 242)">
        <g id="tx_academic_dj7wugsxabd4-fill" stroke="none" fill="#f4f4f4">
          <g>
            <text style="font: 20px Roboto, sans-serif; white-space: pre;" font-size="20px" font-family="Roboto, sans-serif">
            <tspan x="14.84" y="34" dominant-baseline="ideographic">Academic</tspan>
          </text>
        </g>
      </g>
    </g>
    <g id="g-root-cu_1utoikoswth5a-fill" data-item-order="0" transform="translate(244.66665649414062, 230)"/>
    <g id="g-root-cu_1qehhjcswtert-fill" data-item-order="0" transform="translate(244.66665649414062, 230)"/>
    <g id="g-root-cu_1qehhjcswterv-fill" data-item-order="0" transform="translate(538.6666259765625, 230)"/>
    <g id="g-root-tx_projectf_1lynzewswtfk8-fill" data-item-order="0" transform="translate(166.66665649414062, 14)">
      <g id="tx_projectf_1lynzewswtfk8-fill" stroke="none" fill="#f4f4f4">
        <g>
          <text style="font: bold 25px Roboto, sans-serif; white-space: pre;" font-weight="bold" font-size="25px" font-family="Roboto, sans-serif">
          <tspan x="12.2" y="46" dominant-baseline="ideographic">Project Folder Structure: Runarok-Guides</tspan>
        </text>
      </g>
    </g>
  </g>
  <g id="g-root-tx_programm_8dvk8sxa9sa-fill" data-item-order="0" transform="translate(562.6666259765625, 242)">
    <g id="tx_programm_8dvk8sxa9sa-fill" stroke="none" fill="#f4f4f4">
      <g>
        <text style="font: 20px Roboto, sans-serif; white-space: pre;" font-size="20px" font-family="Roboto, sans-serif">
        <tspan x="12" y="34" dominant-baseline="ideographic">Programmatic</tspan>
      </text>
    </g>
  </g>
</g>
<g id="g-root-tx_codefoll_93eeq0sxac5d-fill" data-item-order="0" transform="translate(130.66665649414062, 278)">
  <g id="tx_codefoll_93eeq0sxac5d-fill" stroke="none" fill="#f4f4f4">
    <g>
      <text style="font: 20px Roboto, sans-serif; white-space: pre;" font-size="20px" font-family="Roboto, sans-serif">
      <tspan x="23.28" y="34" dominant-baseline="ideographic">Code Folly</tspan>
    </text>
  </g>
</g>
</g>
<g id="g-root-tx_coderefe_v8mi2wsx8vsy-fill" data-item-order="1000000000" transform="translate(494.6666564941406, 113)">
<g id="tx_coderefe_v8mi2wsx8vsy-fill" stroke="none" fill="#fb6762">
  <g>
    <text style="font: 20px Roboto, sans-serif; white-space: pre;" font-size="20px" font-family="Roboto, sans-serif">
    <tspan x="12" y="34" dominant-baseline="ideographic">Code Reference</tspan>
  </text>
</g>
</g>
</g>
<g id="g-root-tx_codelibr_3e614sws1e0-fill" data-item-order="1000000000" transform="translate(118.66665649414062, 191)">
<g id="tx_codelibr_3e614sws1e0-fill" stroke="none" fill="#cb68f9">
<g>
  <text style="font: 20px Roboto, sans-serif; white-space: pre;" font-size="20px" font-family="Roboto, sans-serif">
  <tspan x="16.17" y="34" dominant-baseline="ideographic">Code Library</tspan>
</text>
</g>
</g>
</g>
<g id="g-root-ic_code_1lt1pmwsws2rt-fill" data-item-order="1000000000" transform="translate(244.66665649414062, 188)"/>
<g id="g-root-ic_1_mczhu0sx8wln-fill" data-item-order="1000000000" transform="translate(458.6666564941406, 110)"/>
<g id="g-root-ic_bubb_quof7ssxa9s6-fill" data-item-order="1000000000" transform="translate(526.6666259765625, 188)"/>
<g id="g-root-tx_thoughtb_145igi0sxabd1-fill" data-item-order="1000000000" transform="translate(562.6666259765625, 191)">
<g id="tx_thoughtb_145igi0sxabd1-fill" stroke="none" fill="#a6da37">
<g>
<text style="font: 20px Roboto, sans-serif; white-space: pre;" font-size="20px" font-family="Roboto, sans-serif">
<tspan x="12" y="34" dominant-baseline="ideographic">Thought Box</tspan>
</text>
</g>
</g>
</g>
<g id="g-root-ic_linu_mg3v9ksx0hkz-fill" data-item-order="1000000000" transform="translate(376.6666564941406, 212)"/>
<g id="g-root-tx_codemanu_4pgbuwsx632c-fill" data-item-order="1000000000" transform="translate(494.6666564941406, 389)">
<g id="tx_codemanu_4pgbuwsx632c-fill" stroke="none" fill="#ffe711">
<g>
<text style="font: 20px Roboto, sans-serif; white-space: pre;" font-size="20px" font-family="Roboto, sans-serif">
<tspan x="12" y="34" dominant-baseline="ideographic">Code Manual</tspan>
</text>
</g>
</g>
</g>
<g id="g-root-tx_runarokg_qvxde0sx0gsq-fill" data-item-order="1000000000" transform="translate(358.6666564941406, 266)">
<g id="tx_runarokg_qvxde0sx0gsq-fill" stroke="none" fill="#ababab">
<g>
<text style="font: 20px Roboto, sans-serif; white-space: pre;" font-size="20px" font-family="Roboto, sans-serif">
<tspan x="12.53" y="34" dominant-baseline="ideographic">Runarok-</tspan>
<tspan x="21.14" y="58" dominant-baseline="ideographic">Guides</tspan>
</text>
</g>
</g>
</g>
<g id="g-root-ic_scho_hz1i4oswthca-fill" data-item-order="1000000000" transform="translate(312.6666564941406, 110)"/>
<g id="g-root-ic_docu_qst348swqnlx-fill" data-item-order="1000000000" transform="translate(312.6666564941406, 386)"/>
<g id="g-root-tx_codeques_quoidkswtgjl-fill" data-item-order="1000000000" transform="translate(198.66665649414062, 113)">
<g id="tx_codeques_quoidkswtgjl-fill" stroke="none" fill="#4f91fc">
<g>
<text style="font: 20px Roboto, sans-serif; white-space: pre;" font-size="20px" font-family="Roboto, sans-serif">
<tspan x="12.47" y="34" dominant-baseline="ideographic">Code Quest</tspan>
</text>
</g>
</g>
</g>
<g id="g-root-tx_license_v8ml8oswqmto-fill" data-item-order="1000000000" transform="translate(222.66665649414062, 389)">
<g id="tx_license_v8ml8oswqmto-fill" stroke="none" fill="#43dd93">
<g>
<text style="font: 20px Roboto, sans-serif; white-space: pre;" font-size="20px" font-family="Roboto, sans-serif">
<tspan x="13.89" y="34" dominant-baseline="ideographic">LICENSE</tspan>
</text>
</g>
</g>
</g>
<g id="g-root-ic_1_1uuxdl4sx63nx-fill" data-item-order="1000000000" transform="translate(458.6666564941406, 386)"/>
<g id="g-root-ro_dkgv0osx0ido-stroke" data-item-order="-19800" transform="translate(334.6666564941406, 188)">
<g id="ro_dkgv0osx0ido-stroke" fill="none" stroke-linecap="round" stroke-linejoin="round" stroke-miterlimit="4" stroke="#ababab" stroke-width="2">
<g>
<path d="M 34 10L 118 10C 118 10 142 10 142 34L 142 136C 142 136 142 160 118 160L 34 160C 34 160 10 160 10 136L 10 34C 10 34 10 10 34 10"/>
</g>
</g>
</g>
<g id="g-root-ro_hx5zpksx8xdw-stroke" data-item-order="-11664" transform="translate(446.6666564941406, 98)">
<g id="ro_hx5zpksx8xdw-stroke" fill="none" stroke-linecap="round" stroke-linejoin="round" stroke-miterlimit="4" stroke="#fb6762" stroke-width="2">
<g>
<path d="M 22 10L 214 10C 214 10 226 10 226 22L 226 52C 226 52 226 64 214 64L 22 64C 22 64 10 64 10 52L 10 22C 10 22 10 10 22 10"/>
</g>
</g>
</g>
<g id="g-root-ro_1qf3vgosx64g6-stroke" data-item-order="-10368" transform="translate(446.6666564941406, 374)">
<g id="ro_1qf3vgosx64g6-stroke" fill="none" stroke-linecap="round" stroke-linejoin="round" stroke-miterlimit="4" stroke="#ffe711" stroke-width="2">
<g>
<path d="M 22 10L 190 10C 190 10 202 10 202 22L 202 52C 202 52 202 64 190 64L 22 64C 22 64 10 64 10 52L 10 22C 10 22 10 10 22 10"/>
</g>
</g>
</g>
<g id="g-root-ro_hz1eywsxaakv-stroke" data-item-order="-9720" transform="translate(514.6666259765625, 176)">
<g id="ro_hz1eywsxaakv-stroke" fill="none" stroke-linecap="round" stroke-linejoin="round" stroke-miterlimit="4" stroke="#a6da37" stroke-width="2">
<g>
<path d="M 22 10L 178 10C 178 10 190 10 190 22L 190 52C 190 52 190 64 178 64L 22 64C 22 64 10 64 10 52L 10 22C 10 22 10 10 22 10"/>
</g>
</g>
</g>
<g id="g-root-ro_1hduolksws0ea-stroke" data-item-order="-9720" transform="translate(106.66665649414062, 176)">
<g id="ro_1hduolksws0ea-stroke" fill="none" stroke-linecap="round" stroke-linejoin="round" stroke-miterlimit="4" stroke="#cb68f9" stroke-width="2">
<g>
<path d="M 22 10L 178 10C 178 10 190 10 190 22L 190 52C 190 52 190 64 178 64L 22 64C 22 64 10 64 10 52L 10 22C 10 22 10 10 22 10"/>
</g>
</g>
</g>
<g id="g-root-ro_djuh3cswteyr-stroke" data-item-order="-9072" transform="translate(186.66665649414062, 98)">
<g id="ro_djuh3cswteyr-stroke" fill="none" stroke-linecap="round" stroke-linejoin="round" stroke-miterlimit="4" stroke="#4f91fc" stroke-width="2">
<g>
<path d="M 22 10L 166 10C 166 10 178 10 178 22L 178 52C 178 52 178 64 166 64L 22 64C 22 64 10 64 10 52L 10 22C 10 22 10 10 22 10"/>
</g>
</g>
</g>
<g id="g-root-ro_hx62vcswqoem-stroke" data-item-order="-7776" transform="translate(210.66665649414062, 374)">
<g id="ro_hx62vcswqoem-stroke" fill="none" stroke-linecap="round" stroke-linejoin="round" stroke-miterlimit="4" stroke="#43dd93" stroke-width="2">
<g>
<path d="M 22 10L 142 10C 142 10 154 10 154 22L 154 52C 154 52 154 64 142 64L 22 64C 22 64 10 64 10 52L 10 22C 10 22 10 10 22 10"/>
</g>
</g>
</g>
<g id="g-root-cu_4o7gugswtgjk-stroke" data-item-order="0" transform="translate(422.6666564941406, 125)">
<g id="cu_4o7gugswtgjk-stroke" fill="none" stroke-linecap="round" stroke-linejoin="round" stroke-miterlimit="4" stroke="#b7b7b7" stroke-width="2" stroke-dasharray="5.0, 7.0">
<g>
<path d="M 10 73L 10 65.1L 10 30.9C 10 19.357248 19.357248 10 30.899998 10L 31 10L 34 10"/>
</g>
</g>
</g>
<g id="g-root-tx_conceptu_1utofewsxaadf-stroke" data-item-order="0" transform="translate(562.6666259765625, 278)"/>
<g id="g-root-cu_djuh3cswteys-stroke" data-item-order="0" transform="translate(354.6666564941406, 338)">
<g id="cu_djuh3cswteys-stroke" fill="none" stroke-linecap="round" stroke-linejoin="round" stroke-miterlimit="4" stroke="#b7b7b7" stroke-width="2" stroke-dasharray="5.0, 7.0">
<g>
<path d="M 34 10L 34 17.9L 34 52.1C 34 63.642753 24.64275 73.000002 13.099999 73.000001L 13 73L 10 73"/>
</g>
</g>
</g>
<g id="g-root-cu_940yywswtfr9-stroke" data-item-order="0" transform="translate(354.6666564941406, 125)">
<g id="cu_940yywswtfr9-stroke" fill="none" stroke-linecap="round" stroke-linejoin="round" stroke-miterlimit="4" stroke="#b7b7b7" stroke-width="2" stroke-dasharray="5.0, 7.0">
<g>
<path d="M 34 73L 34 65.1L 34 30.9C 33.999998 19.357248 24.64275 10 13.1 10L 13 10L 10 10"/>
</g>
</g>
</g>
<g id="g-root-cu_940yywswtfr6-stroke" data-item-order="0" transform="translate(422.6666564941406, 338)">
<g id="cu_940yywswtfr6-stroke" fill="none" stroke-linecap="round" stroke-linejoin="round" stroke-miterlimit="4" stroke="#b7b7b7" stroke-width="2" stroke-dasharray="5.0, 7.0">
<g>
<path d="M 10 10L 10 17.9L 10 52.1C 9.999998 63.64275 19.357246 72.999999 30.899997 72.999999L 31 73L 34 73"/>
</g>
</g>
</g>
<g id="g-root-cu_4o7gugswtfrj-stroke" data-item-order="0" transform="translate(286.6666564941406, 203)">
<g id="cu_4o7gugswtfrj-stroke" fill="none" stroke-linecap="round" stroke-linejoin="round" stroke-miterlimit="4" stroke="#b7b7b7" stroke-width="2" stroke-dasharray="5.0, 7.0">
<g>
<path d="M 58 45L 55 45L 54.9 45C 50.422131 44.972593 45.63978 43.214375 41.299999 40C 38.67988 38.118536 36.018569 33.561496 33.999999 27.499999C 31.98143 21.438501 29.320119 16.881461 26.699999 15C 22.360218 11.785625 17.577867 10.027408 13.1 10L 13 10L 10 10"/>
</g>
</g>
</g>
<g id="g-root-cu_1utoikoswth57-stroke" data-item-order="0" transform="translate(466.6666564941406, 203)">
<g id="cu_1utoikoswth57-stroke" fill="none" stroke-linecap="round" stroke-linejoin="round" stroke-miterlimit="4" stroke="#b7b7b7" stroke-width="2" stroke-dasharray="5.0, 7.0">
<g>
<path d="M 10 45L 13 45L 13.1 45C 17.577866 44.972592 22.360217 43.214375 26.699999 40C 29.320119 38.118536 31.98143 33.561497 33.999999 27.499999C 36.018569 21.438502 38.67988 16.881462 41.299999 15C 45.63978 11.785625 50.422131 10.027407 54.899998 9.999999L 55 10L 58 10"/>
</g>
</g>
</g>
<g id="g-root-cu_1lynzewswtfk6-stroke" data-item-order="0" transform="translate(538.6666259765625, 230)">
<g id="cu_1lynzewswtfk6-stroke" fill="none" stroke-linecap="round" stroke-linejoin="round" stroke-miterlimit="4" stroke="#b7b7b7" stroke-width="2" stroke-dasharray="5.0, 7.0">
<g>
<path d="M 10 10L 10 17.5L 10 58C 10.000002 64.627417 15.372585 70 22.000002 69.999999L 22.1 70L 28 70"/>
</g>
</g>
</g>
<g id="g-root-tx_academic_dj7wugsxabd4-stroke" data-item-order="0" transform="translate(142.66665649414062, 242)"/>
<g id="g-root-cu_1utoikoswth5a-stroke" data-item-order="0" transform="translate(244.66665649414062, 230)">
<g id="cu_1utoikoswth5a-stroke" fill="none" stroke-linecap="round" stroke-linejoin="round" stroke-miterlimit="4" stroke="#b7b7b7" stroke-width="2" stroke-dasharray="5.0, 7.0">
<g>
<path d="M 28 10L 28 22L 28 34L 19 34L 10 34"/>
</g>
</g>
</g>
<g id="g-root-cu_1qehhjcswtert-stroke" data-item-order="0" transform="translate(244.66665649414062, 230)">
<g id="cu_1qehhjcswtert-stroke" fill="none" stroke-linecap="round" stroke-linejoin="round" stroke-miterlimit="4" stroke="#b7b7b7" stroke-width="2" stroke-dasharray="5.0, 7.0">
<g>
<path d="M 28 10L 28 17.5L 28 58C 27.999999 64.627415 22.627416 69.999998 16 69.999998L 15.9 70L 10 70"/>
</g>
</g>
</g>
<g id="g-root-cu_1qehhjcswterv-stroke" data-item-order="0" transform="translate(538.6666259765625, 230)">
<g id="cu_1qehhjcswterv-stroke" fill="none" stroke-linecap="round" stroke-linejoin="round" stroke-miterlimit="4" stroke="#b7b7b7" stroke-width="2" stroke-dasharray="5.0, 7.0">
<g>
<path d="M 10 10L 10 22L 10 34L 19 34L 28 34"/>
</g>
</g>
</g>
<g id="g-root-tx_projectf_1lynzewswtfk8-stroke" data-item-order="0" transform="translate(166.66665649414062, 14)"/>
<g id="g-root-tx_programm_8dvk8sxa9sa-stroke" data-item-order="0" transform="translate(562.6666259765625, 242)"/>
<g id="g-root-tx_codefoll_93eeq0sxac5d-stroke" data-item-order="0" transform="translate(130.66665649414062, 278)"/>
<g id="g-root-tx_coderefe_v8mi2wsx8vsy-stroke" data-item-order="1000000000" transform="translate(494.6666564941406, 113)"/>
<g id="g-root-tx_codelibr_3e614sws1e0-stroke" data-item-order="1000000000" transform="translate(118.66665649414062, 191)"/>
<g id="g-root-ic_code_1lt1pmwsws2rt-stroke" data-item-order="1000000000" transform="translate(244.66665649414062, 188)">
<g id="ic_code_1lt1pmwsws2rt-stroke" fill="none" stroke-linecap="round" stroke-linejoin="round" stroke-miterlimit="4" stroke="#cb68f9" stroke-width="2">
<g>
<path d="M 37.5 27.23625C 37.398571 34.03933 31.803129 39.473061 25 39.375C 18.196871 39.473061 12.601431 34.03933 12.5 27.23625C 12.5 18.29125 23.68375 15.0975 23.68375 10.625C 23.68375 10.625 29.605 12.54125 28.290001 16.375C 26.705 20.991251 25.657499 24.68 29.605 24.68C 33.552498 24.68 32.895 19.57 32.895 19.57C 35.805389 20.995991 37.608105 23.997093 37.5 27.23625ZM 19.73625 34.263748C 19.823912 37.107697 22.154701 39.367748 25 39.367748C 27.845297 39.367748 30.176088 37.107697 30.263748 34.263748C 30.26375 29.7875 23.026249 31.708752 23.026249 25.95875C 21.08721 28.314405 19.93646 31.219263 19.73625 34.263748Z"/>
</g>
</g>
</g>
<g id="g-root-ic_1_mczhu0sx8wln-stroke" data-item-order="1000000000" transform="translate(458.6666564941406, 110)">
<g id="ic_1_mczhu0sx8wln-stroke" fill="none" stroke-linecap="round" stroke-linejoin="round" stroke-miterlimit="4" stroke="#fb6762" stroke-width="2">
<g>
<path d="M 23.1775 39.375L 11.9275 39.375C 11.237144 39.375 10.6775 38.815353 10.6775 38.125L 10.6775 11.875C 10.6775 11.184644 11.237144 10.625 11.9275 10.625L 28.543751 10.625C 28.876505 10.627385 29.194574 10.762351 29.4275 11L 34.061249 15.625C 34.295689 15.859366 34.427429 16.177258 34.427498 16.508749L 34.427498 21.875M 18.1775 18.755001L 14.4275 22.504999L 18.1775 26.254999M 21.9275 18.755001L 25.6775 22.504999L 21.9275 26.254999M 35.052498 31.879999L 39.427498 31.879999L 39.427498 27.504999M 31.92375 39.375C 28.207491 39.377178 25.16217 36.425785 25.047966 32.711281C 24.933762 28.996773 27.792015 25.863869 31.50139 25.637741C 35.210766 25.411613 38.42841 28.174129 38.766251 31.875M 39.427498 27.504999L 39.427498 31.879999L 35.052498 31.879999"/>
</g>
</g>
</g>
<g id="g-root-ic_bubb_quof7ssxa9s6-stroke" data-item-order="1000000000" transform="translate(526.6666259765625, 188)">
<g id="ic_bubb_quof7ssxa9s6-stroke" fill="none" stroke-linecap="round" stroke-linejoin="round" stroke-miterlimit="4" stroke="#a6da37" stroke-width="2">
<g>
<path d="M 33.262501 10.625C 31.011475 10.638911 28.962767 11.927224 27.974998 13.95C 27.193974 13.381993 26.253233 13.075706 25.2875 13.075001C 24.038784 13.084892 22.845337 13.591314 21.970581 14.482488C 21.095823 15.373661 20.611675 16.576315 20.625 17.824999C 20.610958 19.102131 21.117279 20.329979 22.027447 21.226002C 22.937616 22.122023 24.173244 22.609045 25.449999 22.574999C 26.174501 23.666203 27.330891 24.395674 28.627735 24.579575C 29.924582 24.763472 31.238186 24.384258 32.237503 23.5375C 32.648911 23.621042 33.067696 23.66292 33.487503 23.6625C 37.012501 23.6625 39.324997 20.75 39.324997 17.15C 39.399376 15.477346 38.799522 13.84479 37.659878 12.618204C 36.520237 11.391619 34.9361 10.673576 33.262501 10.625ZM 11.5625 22.8125C 11.5625 24.365801 12.821699 25.625 14.375 25.625C 15.928301 25.625 17.1875 24.365801 17.1875 22.8125C 17.1875 21.259199 15.928301 20 14.375 20C 12.821699 20 11.5625 21.259199 11.5625 22.8125M 14.375 26.875C 12.303932 26.875 10.625 28.553932 10.625 30.625L 10.625 33.125L 12.5 33.125L 13.125 39.375L 15.625 39.375L 16.25 33.125L 18.125 33.125L 18.125 30.625C 18.125 28.553932 16.446068 26.875 14.375 26.875ZM 20.9375 28.75C 21.110088 28.75 21.25 28.889912 21.25 29.0625C 21.25 29.235088 21.110088 29.375 20.9375 29.375C 20.764912 29.375 20.625 29.235088 20.625 29.0625C 20.625 28.889912 20.764912 28.75 20.9375 28.75M 30 18.125C 30.172588 18.125 30.3125 18.264912 30.3125 18.4375C 30.3125 18.610088 30.172588 18.75 30 18.75C 29.827412 18.75 29.6875 18.610088 29.6875 18.4375C 29.6875 18.264912 29.827412 18.125 30 18.125M 34.0625 18.125C 34.235088 18.125 34.375 18.264912 34.375 18.4375C 34.375 18.610088 34.235088 18.75 34.0625 18.75C 33.889912 18.75 33.75 18.610088 33.75 18.4375C 33.75 18.264912 33.889912 18.125 34.0625 18.125M 25.9375 18.125C 25.764912 18.125 25.625 18.264912 25.625 18.4375C 25.625 18.610088 25.764912 18.75 25.9375 18.75C 26.110088 18.75 26.25 18.610088 26.25 18.4375C 26.25 18.264912 26.110088 18.125 25.9375 18.125M 22.5 26.25C 22.5 26.940357 23.059643 27.5 23.75 27.5C 24.440357 27.5 25 26.940357 25 26.25C 25 25.559643 24.440357 25 23.75 25C 23.059643 25 22.5 25.559643 22.5 26.25"/>
</g>
</g>
</g>
<g id="g-root-tx_thoughtb_145igi0sxabd1-stroke" data-item-order="1000000000" transform="translate(562.6666259765625, 191)"/>
<g id="g-root-ic_linu_mg3v9ksx0hkz-stroke" data-item-order="1000000000" transform="translate(376.6666564941406, 212)">
<g id="ic_linu_mg3v9ksx0hkz-stroke" fill="none" stroke-linecap="round" stroke-linejoin="round" stroke-miterlimit="4" stroke="#ababab" stroke-width="2">
<g>
<path d="M 57 57C 57 57 54.860001 53.439999 51.84 48.099998L 45 44L 49.540001 44C 44 34 36.940002 20.34 34 11C 32.652092 15.093451 31.055796 19.100891 29.220001 23L 33 28L 27.559999 26.52C 20.42 41.360001 11 57 11 57C 16.409365 53.297085 22.378866 50.487907 28.68 48.68C 28.220966 47.507854 27.99016 46.258785 28 45C 28 40.580002 30.68 37 34 37C 37.32 37 40 40.580002 40 45C 40.009842 46.258785 39.779034 47.507854 39.32 48.68C 45.621136 50.487907 51.590637 53.297085 57 57Z"/>
</g>
</g>
</g>
<g id="g-root-tx_codemanu_4pgbuwsx632c-stroke" data-item-order="1000000000" transform="translate(494.6666564941406, 389)"/>
<g id="g-root-tx_runarokg_qvxde0sx0gsq-stroke" data-item-order="1000000000" transform="translate(358.6666564941406, 266)"/>
<g id="g-root-ic_scho_hz1i4oswthca-stroke" data-item-order="1000000000" transform="translate(312.6666564941406, 110)">
<g id="ic_scho_hz1i4oswthca-stroke" fill="none" stroke-linecap="round" stroke-linejoin="round" stroke-miterlimit="4" stroke="#4f91fc" stroke-width="2">
<g>
<path d="M 39.0625 31.6875L 39.0625 34.1875M 35.812374 33.1875L 35.812374 37.4375C 35.812374 37.4375 34.187374 39.0625 31.687374 39.0625C 29.187376 39.0625 27.562374 37.4375 27.562374 37.4375L 27.562374 33.1875M 10 10M 24.3125 31.6875L 31.6875 34.9375L 39.0625 31.6875L 31.6875 28.4375L 24.3125 31.6875ZM 36.6875 24.771626L 36.6875 12.6875C 36.6875 11.6875 35.9375 10.9375 34.9375 10.9375L 12.68745 10.9375C 11.68745 10.9375 10.937461 11.6875 10.937461 12.6875L 10.937461 29.8125C 10.937461 30.8125 11.68745 31.5625 12.68745 31.5625L 20.649036 31.5625M 10 10M 20.937426 31.5625L 20.062426 36.6875M 21.953125 36.6875L 18.6875 36.6875M 10 10M 18.625025 17.499987L 15.500025 20.749987L 18.625025 24.125M 10 10M 28.5 17.499987L 31.625 20.749987L 28.5 24.125M 10 10M 21.875151 25.125L 25.250126 16.375"/>
</g>
</g>
</g>
<g id="g-root-ic_docu_qst348swqnlx-stroke" data-item-order="1000000000" transform="translate(312.6666564941406, 386)">
<g id="ic_docu_qst348swqnlx-stroke" fill="none" stroke-linecap="round" stroke-linejoin="round" stroke-miterlimit="4" stroke="#43dd93" stroke-width="2">
<g>
<path d="M 29.375 26.25L 29.375 39.375M 19.375 33.125L 22.5 24.375L 25.625 33.125M 27.5 24.375C 27.5 25.410534 28.339466 26.25 29.375 26.25C 30.410536 26.25 31.25 25.410534 31.25 24.375C 31.25 23.339466 30.410536 22.5 29.375 22.5C 28.339466 22.5 27.5 23.339466 27.5 24.375ZM 31.25 24.375L 37.5 24.375M 21.25 24.375L 27.5 24.375M 25.625 39.375L 33.125 39.375M 25.625 33.125C 25.625 34.850891 24.225889 36.25 22.5 36.25C 20.774111 36.25 19.375 34.850891 19.375 33.125ZM 39.375 33.125L 36.25 24.375L 33.125 33.125M 33.125 33.125C 33.125 34.850891 34.524109 36.25 36.25 36.25C 37.975891 36.25 39.375 34.850891 39.375 33.125ZM 21.875 39.375L 11.875 39.375C 11.184644 39.375 10.625 38.815353 10.625 38.125L 10.625 11.875C 10.625 11.184644 11.184644 10.625 11.875 10.625L 23.125 10.625C 23.916159 10.667902 24.668945 10.97969 25.258749 11.50875L 29.741251 15.99125C 30.270309 16.581053 30.582096 17.333841 30.625 18.125L 30.625 20M 24.375 10.93125L 24.375 15.625C 24.375 16.315355 24.934643 16.875 25.625 16.875L 30.318748 16.875M 14.375 16.875L 17.5 16.875M 14.375 20.625L 21.25 20.625"/>
</g>
</g>
</g>
<g id="g-root-tx_codeques_quoidkswtgjl-stroke" data-item-order="1000000000" transform="translate(198.66665649414062, 113)"/>
<g id="g-root-tx_license_v8ml8oswqmto-stroke" data-item-order="1000000000" transform="translate(222.66665649414062, 389)"/>
<g id="g-root-ic_1_1uuxdl4sx63nx-stroke" data-item-order="1000000000" transform="translate(458.6666564941406, 386)">
<g id="ic_1_1uuxdl4sx63nx-stroke" fill="none" stroke-linecap="round" stroke-linejoin="round" stroke-miterlimit="4" stroke="#ffe711" stroke-width="2">
<g>
<path d="M 25 29.6875C 30.177624 29.6875 34.375 25.490126 34.375 20.3125C 34.375 15.134825 30.177624 10.9375 25 10.9375C 19.822325 10.9375 15.625 15.134825 15.625 20.3125C 15.625 25.490126 19.822325 29.6875 25 29.6875ZM 21.25 34.681747L 28.75 34.681747M 21.25 32.089874L 28.75 32.089874M 21.25 37.1875L 28.75 37.1875M 25 39.0625L 25 37.1875M 10 10M 20.625 18.062437L 18.75 20.562437L 20.625 23.0625M 10 10M 29.375 18.062437L 31.25 20.562437L 29.375 23.0625M 10 10M 24.000126 23.0625L 25.875126 16.812437"/>
</g>
</g>
</g>
</g>
</g>
</svg>
